<svg width="686" height="557" viewBox="0 0 686 557" fill="none" xmlns="http://www.w3.org/2000/svg">
<path d="M85.0433 557C72.9485 557 61.7601 554.863 51.4796 550.589C41.199 546.315 32.2031 540.347 24.4925 532.683C16.7819 525.019 10.7341 516.029 6.34987 505.713C2.11634 495.396 0 484.122 0 471.889C0 459.657 2.04101 448.383 6.12309 438.066C10.3566 427.603 16.253 418.612 23.8121 411.096C31.5227 403.432 40.5187 397.538 50.7992 393.411C61.0797 389.137 72.2682 387 84.363 387C96.4578 387 107.268 388.99 116.793 392.969C126.469 396.948 134.633 402.254 141.285 408.886C147.937 415.37 152.7 422.518 155.573 430.329L128.132 443.151C124.957 434.603 119.59 427.676 112.03 422.371C104.471 417.065 95.2485 414.412 84.363 414.412C73.7795 414.412 64.4062 416.844 56.242 421.707C48.2293 426.571 41.9547 433.276 37.4191 441.824C33.0349 450.373 30.8424 460.394 30.8424 471.889C30.8424 483.385 33.1102 493.481 37.6458 502.176C42.3329 510.724 48.7582 517.429 56.9223 522.293C65.0865 527.156 74.4599 529.588 85.0433 529.588C93.661 529.588 101.598 527.967 108.855 524.724C116.112 521.335 121.934 516.618 126.318 510.576C130.702 504.386 132.894 497.091 132.894 488.691V476.09L146.955 488.027H84.363V462.605H163.737V479.185C163.737 491.859 161.544 503.06 157.16 512.787C152.776 522.514 146.803 530.693 139.244 537.325C131.836 543.809 123.445 548.747 114.071 552.137C104.698 555.379 95.0217 557 85.0433 557ZM245.972 557C233.876 557 222.84 554.274 212.862 548.821C203.034 543.367 195.173 535.925 189.276 526.493C183.531 517.06 180.659 506.302 180.659 494.217C180.659 482.132 183.531 471.374 189.276 461.941C195.173 452.509 203.034 445.067 212.862 439.614C222.689 434.161 233.726 431.434 245.972 431.434C258.067 431.434 269.028 434.161 278.855 439.614C288.682 445.067 296.468 452.509 302.214 461.941C308.11 471.226 311.058 481.985 311.058 494.217C311.058 506.302 308.11 517.06 302.214 526.493C296.318 535.925 288.456 543.367 278.629 548.821C268.801 554.274 257.915 557 245.972 557ZM245.972 530.472C252.624 530.472 258.445 528.925 263.434 525.83C268.574 522.735 272.581 518.461 275.454 513.008C278.477 507.408 279.989 501.144 279.989 494.217C279.989 487.143 278.477 480.953 275.454 475.648C272.581 470.194 268.574 465.921 263.434 462.826C258.445 459.583 252.624 457.962 245.972 457.962C239.169 457.962 233.196 459.583 228.056 462.826C222.916 465.921 218.833 470.194 215.81 475.648C212.937 480.953 211.501 487.143 211.501 494.217C211.501 501.144 212.937 507.408 215.81 513.008C218.833 518.461 222.916 522.735 228.056 525.83C233.196 528.925 239.169 530.472 245.972 530.472ZM400.942 557C392.022 557 383.782 555.305 376.223 551.915C368.814 548.378 362.918 543.367 358.534 536.883L361.482 531.135V554.347H333.588V387H363.296V457.962L358.761 451.994C362.994 445.509 368.739 440.498 375.996 436.961C383.253 433.276 391.644 431.434 401.169 431.434C412.808 431.434 423.321 434.235 432.692 439.835C442.063 445.435 449.474 452.951 454.917 462.384C460.514 471.816 463.308 482.427 463.308 494.217C463.308 505.86 460.587 516.471 455.144 526.051C449.701 535.63 442.29 543.22 432.919 548.821C423.548 554.274 412.889 557 400.942 557ZM397.54 530.472C404.345 530.472 410.395 528.925 415.684 525.83C420.973 522.735 425.055 518.461 427.93 513.008C430.951 507.555 432.466 501.291 432.466 494.217C432.466 487.143 430.951 480.953 427.93 475.648C425.055 470.194 420.973 465.921 415.684 462.826C410.395 459.583 404.345 457.962 397.54 457.962C391.039 457.962 385.143 459.51 379.851 462.605C374.711 465.7 370.629 470.048 367.605 475.648C364.732 481.101 363.296 487.291 363.296 494.217C363.296 501.291 364.732 507.555 367.605 513.008C370.629 518.461 374.711 522.735 379.851 525.83C385.143 528.925 391.039 530.472 397.54 530.472ZM523.373 557C514.755 557 507.271 555.6 500.921 552.8C494.572 549.999 489.663 546.02 486.181 540.862C482.706 535.557 480.965 529.44 480.965 522.514C480.965 515.882 482.479 509.986 485.5 504.828C488.529 499.523 493.211 495.101 499.561 491.564C505.911 488.027 513.929 485.522 523.6 484.048L563.967 477.637V499.744L529.269 505.492C523.373 506.523 518.991 508.365 516.116 511.018C513.249 513.671 511.807 517.135 511.807 521.408C511.807 525.535 513.394 528.851 516.569 531.356C519.898 533.715 523.98 534.893 528.816 534.893C535.02 534.893 540.462 533.64 545.144 531.135C549.987 528.482 553.689 524.872 556.256 520.303C558.978 515.734 560.338 510.724 560.338 505.271V474.321C560.338 469.163 558.224 464.889 553.988 461.499C549.906 457.962 544.464 456.194 537.66 456.194C531.31 456.194 525.641 457.889 520.651 461.278C515.816 464.521 512.26 468.868 509.993 474.321L485.727 462.826C488.149 456.488 491.931 451.036 497.066 446.467C502.363 441.751 508.559 438.066 515.662 435.414C522.774 432.761 530.484 431.434 538.794 431.434C548.926 431.434 557.844 433.276 565.554 436.961C573.265 440.498 579.242 445.509 583.47 451.994C587.86 458.331 590.047 465.773 590.047 474.321V554.347H561.926V533.788L568.276 533.346C565.101 538.504 561.326 542.852 556.937 546.389C552.555 549.778 547.566 552.431 541.969 554.347C536.38 556.116 530.176 557 523.373 557ZM617.512 554.347V434.087H645.406V460.836L643.138 456.857C646.005 447.867 650.468 441.603 656.518 438.066C662.714 434.529 670.125 432.761 678.743 432.761H686V458.404H675.341C666.869 458.404 660.066 460.984 654.931 466.142C649.788 471.153 647.22 478.227 647.22 487.364V554.347H617.512Z" fill="white"/>
<mask id="mask0_3109_1907" style="mask-type:luminance" maskUnits="userSpaceOnUse" x="177" y="0" width="332" height="324">
<path d="M508.347 0H177.096V323.412H508.347V0Z" fill="white"/>
</mask>
<g mask="url(#mask0_3109_1907)">
<path fill-rule="evenodd" clip-rule="evenodd" d="M231.429 40.0842C232.214 39.3826 233.131 38.8396 234.128 38.4863C235.126 38.1331 236.185 37.9764 237.244 38.0253C238.303 38.0742 239.342 38.3276 240.302 38.7712C241.262 39.2148 242.123 39.8398 242.837 40.6106C243.551 41.3813 244.103 42.2827 244.463 43.2633C244.822 44.2439 244.982 45.2844 244.932 46.3256C244.882 47.3667 244.624 48.388 244.173 49.3312C243.722 50.2744 243.086 51.121 242.301 51.8226C220.769 71.0308 205.398 95.9896 198.07 123.648C190.741 151.306 191.772 180.463 201.036 207.554C205.234 219.787 211.07 231.417 218.388 242.138C218.977 243.002 219.387 243.971 219.595 244.991C219.803 246.011 219.804 247.061 219.599 248.082C219.394 249.102 218.986 250.073 218.399 250.938C217.813 251.804 217.058 252.547 216.179 253.126C215.3 253.705 214.313 254.108 213.276 254.312C212.238 254.517 211.17 254.518 210.131 254.316C209.093 254.115 208.106 253.714 207.225 253.137C206.344 252.561 205.588 251.819 204.999 250.955C182.922 218.521 173.445 179.367 178.297 140.636C183.149 101.906 202.007 66.1807 231.429 39.9789V40.0842ZM286.299 313.805C284.289 313.087 282.652 311.612 281.748 309.707C280.844 307.802 280.747 305.621 281.479 303.646C282.21 301.671 283.71 300.062 285.648 299.174C287.587 298.285 289.805 298.19 291.815 298.909C301.358 302.298 311.227 304.724 321.272 306.147C331.37 307.565 341.589 307.979 351.772 307.384C366.075 306.555 380.181 303.701 393.654 298.909C394.649 298.563 395.704 298.413 396.758 298.468C397.812 298.524 398.844 298.782 399.797 299.229C400.749 299.676 401.602 300.303 402.308 301.075C403.014 301.846 403.558 302.747 403.91 303.725C404.261 304.703 404.414 305.74 404.358 306.775C404.302 307.812 404.039 308.826 403.584 309.763C403.129 310.699 402.49 311.537 401.706 312.231C400.92 312.925 400.004 313.46 399.01 313.805C391.566 316.473 383.931 318.593 376.167 320.148C368.388 321.723 360.504 322.752 352.576 323.228C341.369 323.855 330.127 323.361 319.022 321.754C307.879 320.179 296.932 317.48 286.352 313.7L286.299 313.805ZM480.443 251.139C479.854 252.003 479.097 252.744 478.217 253.322C477.336 253.898 476.349 254.299 475.31 254.5C474.272 254.702 473.204 254.701 472.166 254.496C471.129 254.292 470.142 253.89 469.263 253.311C468.384 252.732 467.629 251.988 467.042 251.123C466.456 250.257 466.048 249.286 465.843 248.266C465.638 247.246 465.639 246.196 465.847 245.176C466.055 244.156 466.464 243.186 467.053 242.322C487.046 212.953 495.583 177.479 491.096 142.42C486.609 107.36 469.4 75.069 442.631 51.4805C441.844 50.7892 441.202 49.9522 440.744 49.0172C440.285 48.0824 440.019 47.0678 439.959 46.0316C439.899 44.9953 440.048 43.9577 440.396 42.9779C440.744 41.998 441.285 41.0952 441.989 40.321C442.692 39.5469 443.544 38.9164 444.495 38.4657C445.446 38.0148 446.479 37.7526 447.533 37.694C448.587 37.6354 449.643 37.7814 450.64 38.1238C451.637 38.4661 452.555 38.9981 453.343 39.6894C483.006 65.8241 502.073 101.605 507.037 140.454C512.002 179.302 502.53 218.606 480.362 251.139H480.443Z" fill="white"/>
<path fill-rule="evenodd" clip-rule="evenodd" d="M421.236 45.2167C421.291 46.0329 421.175 46.8515 420.895 47.6219C420.615 48.3922 420.177 49.0979 419.609 49.6951C419.041 50.2924 418.353 50.7685 417.59 51.094C416.826 51.4196 416.003 51.5875 415.171 51.5875C414.339 51.5875 413.514 51.4196 412.751 51.094C411.987 50.7685 411.301 50.2924 410.732 49.6951C410.163 49.0979 409.725 48.3922 409.446 47.6219C409.165 46.8515 409.05 46.0329 409.105 45.2167V11.9228H401.42V45.2167C401.264 46.1531 400.774 47.0045 400.038 47.6188C399.302 48.2331 398.368 48.5704 397.403 48.5704C396.437 48.5704 395.503 48.2331 394.767 47.6188C394.032 47.0045 393.542 46.1531 393.386 45.2167V11.9228H383.451V45.2167C383.295 46.1531 382.805 47.0045 382.07 47.6188C381.334 48.2331 380.4 48.5704 379.434 48.5704C378.469 48.5704 377.535 48.2331 376.799 47.6188C376.064 47.0045 375.573 46.1531 375.417 45.2167V11.9228H365.483V45.2167C365.549 45.7734 365.494 46.3375 365.322 46.8719C365.149 47.4062 364.864 47.8987 364.485 48.3172C364.106 48.7356 363.64 49.0704 363.12 49.2997C362.6 49.529 362.037 49.6475 361.466 49.6475C360.896 49.6475 360.332 49.529 359.811 49.2997C359.291 49.0704 358.827 48.7356 358.447 48.3172C358.068 47.8987 357.783 47.4062 357.611 46.8719C357.439 46.3375 357.384 45.7734 357.449 45.2167V11.9228H347.514V45.2167C347.58 45.7734 347.524 46.3375 347.353 46.8719C347.181 47.4062 346.896 47.8987 346.517 48.3172C346.137 48.7356 345.672 49.0704 345.152 49.2997C344.631 49.529 344.068 49.6475 343.498 49.6475C342.927 49.6475 342.363 49.529 341.843 49.2997C341.323 49.0704 340.858 48.7356 340.479 48.3172C340.1 47.8987 339.814 47.4062 339.642 46.8719C339.47 46.3375 339.415 45.7734 339.481 45.2167V11.9228H329.546V45.2167C329.611 45.7734 329.556 46.3375 329.385 46.8719C329.213 47.4062 328.928 47.8987 328.548 48.3172C328.169 48.7356 327.704 49.0704 327.183 49.2997C326.663 49.529 326.099 49.6475 325.529 49.6475C324.959 49.6475 324.395 49.529 323.875 49.2997C323.354 49.0704 322.889 48.7356 322.51 48.3172C322.13 47.8987 321.846 47.4062 321.674 46.8719C321.502 46.3375 321.447 45.7734 321.512 45.2167V11.9228H311.577V45.2167C311.463 46.1852 310.992 47.0788 310.251 47.7273C309.51 48.376 308.552 48.7343 307.561 48.7343C306.569 48.7343 305.612 48.376 304.871 47.7273C304.13 47.0788 303.658 46.1852 303.544 45.2167V11.9228H293.609V45.2167C293.495 46.1852 293.023 47.0788 292.282 47.7273C291.541 48.376 290.584 48.7343 289.592 48.7343C288.601 48.7343 287.643 48.376 286.902 47.7273C286.162 47.0788 285.69 46.1852 285.576 45.2167V11.9228H276.337V45.2167C276.392 46.0329 276.277 46.8515 275.996 47.6219C275.717 48.3922 275.279 49.0979 274.71 49.6951C274.142 50.2924 273.454 50.7685 272.691 51.094C271.927 51.4196 271.104 51.5875 270.272 51.5875C269.439 51.5875 268.616 51.4196 267.852 51.094C267.089 50.7685 266.402 50.2924 265.833 49.6951C265.264 49.0979 264.827 48.3922 264.547 47.6219C264.267 46.8515 264.151 46.0329 264.206 45.2167V5.97459V5.81667V5.65875V5.50083V5.26396V5.05341C264.223 5.01104 264.223 4.96418 264.206 4.92181C264.206 4.92181 264.206 4.92181 264.206 4.7639C264.209 4.72006 264.209 4.67613 264.206 4.6323C264.204 4.58847 264.204 4.54453 264.206 4.5007C264.206 4.5007 264.206 4.5007 264.206 4.34278V4.21119C264.192 4.16845 264.192 4.12233 264.206 4.07959C264.192 4.03685 264.192 3.99074 264.206 3.94799C264.195 3.89598 264.195 3.8421 264.206 3.79008C264.206 3.79008 264.206 3.79008 264.206 3.65848V3.52689V3.39529V3.26369C264.758 2.17368 265.637 1.27628 266.724 0.692661C267.811 0.109041 269.054 -0.132694 270.285 9.35815e-05H415.157C416.769 9.35815e-05 418.315 0.629546 419.455 1.74998C420.595 2.87041 421.236 4.39005 421.236 5.97459V45.2167Z" fill="white"/>
<path fill-rule="evenodd" clip-rule="evenodd" d="M223.424 296.251L207.357 305.384L202.644 297.488L217.907 288.855C219.516 291.478 221.362 293.954 223.424 296.251Z" fill="white"/>
<path fill-rule="evenodd" clip-rule="evenodd" d="M434.837 50.2702L283.002 224.636L296.391 235.9L358.919 198.264C381.547 163.522 443.111 84.2484 447.691 48.2436C449.298 35.2945 449.324 33.6627 434.837 50.2702Z" fill="white"/>
<path fill-rule="evenodd" clip-rule="evenodd" d="M274.863 213.187C263.176 210.099 250.761 211.09 239.734 215.991C228.708 220.893 219.752 229.401 214.393 240.067C209.035 250.731 207.605 262.893 210.349 274.478C213.092 286.063 219.838 296.355 229.438 303.597C239.037 310.841 250.895 314.588 262.991 314.201C275.086 313.813 286.671 309.314 295.769 301.471C304.868 293.628 310.918 282.927 312.887 271.191C314.857 259.454 312.624 247.41 306.569 237.111C299.645 225.321 288.241 216.716 274.863 213.187ZM244.041 233.295C250.962 229.353 259.06 227.891 266.955 229.161C274.849 230.429 282.052 234.349 287.335 240.253C292.618 246.156 295.654 253.678 295.927 261.535C296.199 269.393 293.691 277.1 288.829 283.344C283.968 289.587 277.054 293.98 269.266 295.775C261.478 297.569 253.297 296.654 246.119 293.184C238.941 289.714 233.209 283.906 229.9 276.748C226.592 269.59 225.911 261.525 227.974 253.929C229.141 249.621 231.161 245.581 233.918 242.04C236.675 238.5 240.115 235.528 244.041 233.295Z" fill="white"/>
<path fill-rule="evenodd" clip-rule="evenodd" d="M250.605 50.2702L402.439 224.636L389.05 235.9L326.522 198.264C303.895 163.522 242.331 84.2484 237.752 48.2436C236.011 35.2945 236.011 33.6627 250.605 50.2702Z" fill="white"/>
<path fill-rule="evenodd" clip-rule="evenodd" d="M410.578 213.187C422.253 210.115 434.652 211.117 445.66 216.021C456.668 220.927 465.606 229.431 470.949 240.086C476.293 250.742 477.713 262.889 474.966 274.458C472.219 286.027 465.477 296.302 455.886 303.532C446.296 310.762 434.452 314.501 422.372 314.111C410.292 313.72 398.723 309.226 389.636 301.392C380.549 293.558 374.508 282.87 372.54 271.149C370.572 259.428 372.801 247.399 378.845 237.111C382.276 231.271 386.845 226.151 392.289 222.046C397.734 217.941 403.949 214.931 410.578 213.187ZM441.399 233.295C434.474 229.348 426.369 227.883 418.467 229.15C410.566 230.419 403.356 234.341 398.067 240.249C392.778 246.157 389.738 253.685 389.465 261.549C389.191 269.414 391.701 277.128 396.567 283.377C401.433 289.626 408.354 294.023 416.148 295.818C423.944 297.613 432.132 296.696 439.316 293.222C446.5 289.749 452.235 283.933 455.545 276.768C458.855 269.603 459.534 261.532 457.467 253.929C455.107 245.229 449.327 237.807 441.399 233.295Z" fill="white"/>
<path fill-rule="evenodd" clip-rule="evenodd" d="M261.342 241.427C256.33 241.427 251.473 243.134 247.598 246.26C243.723 249.384 241.071 253.732 240.092 258.563C239.114 263.395 239.87 268.41 242.232 272.755C244.595 277.1 248.416 280.505 253.047 282.391C257.677 284.276 262.829 284.525 267.626 283.096C272.423 281.667 276.566 278.646 279.351 274.551C282.136 270.455 283.39 265.537 282.899 260.635C282.408 255.732 280.203 251.149 276.659 247.665C274.65 245.684 272.263 244.114 269.635 243.044C267.006 241.972 264.187 241.423 261.342 241.427ZM243.159 244.77C247.363 240.656 252.888 238.1 258.793 237.539C264.698 236.978 270.619 238.446 275.546 241.692C280.475 244.939 284.105 249.764 285.82 255.347C287.535 260.928 287.229 266.922 284.954 272.307C282.678 277.692 278.574 282.135 273.34 284.88C268.106 287.626 262.066 288.503 256.247 287.364C250.429 286.224 245.193 283.138 241.43 278.63C237.666 274.122 235.609 268.472 235.608 262.641C235.6 259.319 236.263 256.029 237.56 252.961C238.856 249.894 240.759 247.109 243.159 244.77Z" fill="white"/>
<path fill-rule="evenodd" clip-rule="evenodd" d="M424.1 241.427C419.093 241.451 414.248 243.179 410.391 246.317C406.533 249.455 403.901 253.81 402.942 258.641C401.982 263.471 402.755 268.479 405.129 272.813C407.503 277.146 411.331 280.537 415.961 282.41C420.592 284.283 425.74 284.521 430.53 283.085C435.318 281.647 439.453 278.625 442.231 274.529C445.008 270.434 446.256 265.519 445.763 260.622C445.269 255.724 443.065 251.146 439.525 247.665C437.521 245.678 435.135 244.102 432.505 243.031C429.875 241.96 427.054 241.415 424.208 241.427H424.1ZM405.918 244.77C410.125 240.629 415.664 238.05 421.589 237.473C427.515 236.896 433.461 238.356 438.413 241.605C443.366 244.854 447.019 249.691 448.75 255.291C450.481 260.891 450.182 266.907 447.906 272.314C445.628 277.722 441.514 282.186 436.263 284.946C431.012 287.706 424.95 288.591 419.11 287.45C413.27 286.309 408.013 283.213 404.235 278.688C400.457 274.165 398.393 268.493 398.393 262.641C398.387 259.322 399.049 256.035 400.341 252.968C401.632 249.901 403.527 247.115 405.918 244.77Z" fill="white"/>
</g>
</svg>
