<svg width="32" height="44" viewBox="0 0 32 44" fill="none" xmlns="http://www.w3.org/2000/svg">
<mask id="mask0_3145_1896" style="mask-type:luminance" maskUnits="userSpaceOnUse" x="0" y="0" width="32" height="33">
<path d="M31.9226 0H0V32.1164H31.9226V0Z" fill="white"/>
</mask>
<g mask="url(#mask0_3145_1896)">
<path fill-rule="evenodd" clip-rule="evenodd" d="M5.23549 3.98054C5.31108 3.91089 5.39946 3.85697 5.49559 3.82187C5.59175 3.78679 5.69379 3.77124 5.79588 3.7761C5.89794 3.78094 5.9981 3.80614 6.09056 3.85017C6.18305 3.89421 6.26607 3.95629 6.33484 4.03282C6.40364 4.10937 6.45688 4.19889 6.49151 4.29627C6.52617 4.39363 6.54153 4.49697 6.53673 4.60037C6.53193 4.70374 6.50708 4.80517 6.46359 4.89884C6.42011 4.99249 6.35882 5.07657 6.28323 5.14622C4.20816 7.05371 2.7269 9.53227 2.02063 12.2788C1.31436 15.0254 1.41369 17.9208 2.30647 20.6111C2.7111 21.8259 3.27345 22.9808 3.97871 24.0454C4.03549 24.1313 4.075 24.2275 4.09502 24.3288C4.11505 24.4301 4.11518 24.5344 4.09541 24.6357C4.07564 24.737 4.03637 24.8334 3.9798 24.9194C3.92326 25.0053 3.85053 25.0791 3.76581 25.1366C3.68109 25.1941 3.58602 25.2342 3.48602 25.2544C3.38602 25.2747 3.28308 25.2748 3.18302 25.2548C3.08297 25.2348 2.9878 25.195 2.90292 25.1377C2.81807 25.0805 2.74517 25.0068 2.68839 24.921C0.560872 21.7001 -0.352411 17.812 0.115177 13.9659C0.582766 10.1197 2.40006 6.57207 5.23549 3.97009V3.98054ZM10.5232 31.1624C10.3296 31.091 10.1718 30.9447 10.0847 30.7554C9.99755 30.5662 9.98824 30.3498 10.0587 30.1535C10.1292 29.9572 10.2738 29.7975 10.4606 29.7095C10.6474 29.6211 10.8612 29.6117 11.0548 29.6831C11.9745 30.0197 12.9257 30.2604 13.8936 30.4018C14.8668 30.5427 15.8515 30.5837 16.8329 30.5247C18.2113 30.4423 19.5707 30.159 20.869 29.6831C20.965 29.6488 21.0666 29.6339 21.1682 29.6394C21.2698 29.6449 21.3693 29.6705 21.461 29.715C21.5528 29.7594 21.6351 29.8216 21.7031 29.8982C21.7711 29.9748 21.8235 30.0641 21.8574 30.1614C21.8913 30.2586 21.906 30.3613 21.9006 30.4643C21.8952 30.5673 21.8699 30.6679 21.826 30.7609C21.7821 30.854 21.7207 30.9371 21.645 31.0061C21.5694 31.0748 21.4811 31.1281 21.3852 31.1624C20.6679 31.4274 19.9321 31.6378 19.1839 31.7923C18.4341 31.9486 17.6744 32.0508 16.9103 32.0981C15.8304 32.1603 14.747 32.1114 13.6768 31.9517C12.603 31.7951 11.548 31.5273 10.5284 31.1519L10.5232 31.1624ZM29.2329 24.9393C29.1762 25.0251 29.1034 25.0988 29.0185 25.156C28.9336 25.2133 28.8384 25.2531 28.7382 25.2731C28.6384 25.2931 28.5354 25.293 28.4353 25.2727C28.3354 25.2525 28.2402 25.2124 28.1555 25.1549C28.0709 25.0974 27.9981 25.0236 27.9416 24.9377C27.8851 24.8517 27.8456 24.7553 27.826 24.654C27.8061 24.5527 27.8064 24.4484 27.8262 24.3471C27.8464 24.2458 27.8858 24.1496 27.9426 24.0637C29.8693 21.1472 30.692 17.6246 30.2595 14.143C29.8273 10.6614 28.1687 7.45472 25.589 5.11225C25.5131 5.04361 25.4513 4.9605 25.4071 4.86766C25.3629 4.7748 25.3372 4.67407 25.3315 4.57117C25.3257 4.46825 25.34 4.36522 25.3736 4.26791C25.4072 4.17061 25.4593 4.08096 25.5271 4.00407C25.5949 3.9272 25.677 3.86458 25.7686 3.81983C25.8603 3.77506 25.9599 3.74903 26.0613 3.7432C26.163 3.73737 26.2647 3.75188 26.3607 3.78588C26.4569 3.81988 26.5455 3.8727 26.6213 3.94134C29.4799 6.53665 31.3173 10.0899 31.7958 13.9477C32.2742 17.8056 31.3615 21.7087 29.2252 24.9393H29.2329Z" fill="white"/>
<path fill-rule="evenodd" clip-rule="evenodd" d="M23.5277 4.49033C23.5331 4.57138 23.5219 4.65267 23.4949 4.72917C23.468 4.80567 23.4258 4.87574 23.371 4.93507C23.3162 4.99437 23.2499 5.04166 23.1764 5.07399C23.1028 5.10632 23.0234 5.12299 22.9432 5.12299C22.863 5.12299 22.7837 5.10632 22.7101 5.07399C22.6365 5.04166 22.5703 4.99437 22.5155 4.93507C22.4607 4.87574 22.4185 4.80567 22.3915 4.72917C22.3646 4.65267 22.3534 4.57138 22.3587 4.49033V1.18408H21.6181V4.49033C21.603 4.58333 21.5558 4.66788 21.4849 4.72888C21.414 4.78988 21.324 4.82336 21.231 4.82336C21.1379 4.82336 21.0479 4.78988 20.977 4.72888C20.9061 4.66788 20.8589 4.58333 20.8439 4.49033V1.18408H19.8865V4.49033C19.8714 4.58333 19.8242 4.66788 19.7533 4.72888C19.6824 4.78988 19.5924 4.82336 19.4994 4.82336C19.4063 4.82336 19.3163 4.78988 19.2454 4.72888C19.1745 4.66788 19.1273 4.58333 19.1123 4.49033V1.18408H18.1548V4.49033C18.1612 4.54561 18.1558 4.60162 18.1393 4.65471C18.1227 4.70776 18.0953 4.75666 18.0587 4.79822C18.0221 4.83978 17.9773 4.87302 17.9272 4.89579C17.877 4.91858 17.8227 4.93034 17.7677 4.93034C17.7128 4.93034 17.6585 4.91858 17.6083 4.89579C17.5582 4.87302 17.5134 4.83978 17.4768 4.79822C17.4402 4.75666 17.4128 4.70776 17.3962 4.65471C17.3796 4.60162 17.3743 4.54561 17.3806 4.49033V1.18408H16.4232V4.49033C16.4296 4.54561 16.4242 4.60162 16.4077 4.65471C16.3911 4.70776 16.3636 4.75666 16.3271 4.79822C16.2905 4.83978 16.2457 4.87302 16.1956 4.89579C16.1454 4.91858 16.0911 4.93034 16.0361 4.93034C15.9812 4.93034 15.9268 4.91858 15.8767 4.89579C15.8266 4.87302 15.7818 4.83978 15.7452 4.79822C15.7086 4.75666 15.6812 4.70776 15.6646 4.65471C15.648 4.60162 15.6427 4.54561 15.649 4.49033V1.18408H14.6916V4.49033C14.6979 4.54561 14.6926 4.60162 14.6761 4.65471C14.6595 4.70776 14.632 4.75666 14.5955 4.79822C14.5589 4.83978 14.5141 4.87302 14.464 4.89579C14.4138 4.91858 14.3595 4.93034 14.3045 4.93034C14.2496 4.93034 14.1952 4.91858 14.1451 4.89579C14.0949 4.87302 14.0501 4.83978 14.0136 4.79822C13.977 4.75666 13.9496 4.70776 13.933 4.65471C13.9164 4.60162 13.9111 4.54561 13.9174 4.49033V1.18408H12.96V4.49033C12.949 4.58652 12.9035 4.67525 12.8321 4.73965C12.7608 4.80405 12.6685 4.83965 12.5729 4.83965C12.4773 4.83965 12.3851 4.80405 12.3137 4.73965C12.2423 4.67525 12.1968 4.58652 12.1858 4.49033V1.18408H11.2284V4.49033C11.2174 4.58652 11.1719 4.67525 11.1005 4.73965C11.0292 4.80405 10.9369 4.83965 10.8413 4.83965C10.7457 4.83965 10.6535 4.80405 10.5821 4.73965C10.5107 4.67525 10.4652 4.58652 10.4542 4.49033V1.18408H9.56387V4.49033C9.56919 4.57138 9.55802 4.65267 9.53105 4.72917C9.50411 4.80567 9.46191 4.87574 9.4071 4.93507C9.35231 4.99437 9.28607 5.04166 9.21249 5.07399C9.13892 5.10632 9.05957 5.12299 8.97936 5.12299C8.89915 5.12299 8.8198 5.10632 8.74622 5.07399C8.67265 5.04166 8.6064 4.99437 8.55162 4.93507C8.4968 4.87574 8.45464 4.80567 8.42767 4.72917C8.4007 4.65267 8.38953 4.57138 8.39484 4.49033V0.593403V0.577721V0.562039V0.546357V0.522835V0.501926C8.39644 0.497718 8.39644 0.493065 8.39484 0.488857C8.39484 0.488857 8.39484 0.488857 8.39484 0.473176C8.3951 0.468821 8.3951 0.464459 8.39484 0.460107C8.39458 0.455753 8.39458 0.451391 8.39484 0.447039C8.39484 0.447039 8.39484 0.447039 8.39484 0.431357V0.418289C8.39348 0.414045 8.39348 0.409466 8.39484 0.405221C8.39348 0.400977 8.39348 0.396398 8.39484 0.392153C8.39373 0.386986 8.39373 0.381636 8.39484 0.376471C8.39484 0.376471 8.39484 0.376471 8.39484 0.363403V0.350335V0.337267V0.324198C8.448 0.215954 8.53268 0.126838 8.63745 0.068882C8.7422 0.0109258 8.86199 -0.0130797 8.98065 0.000106764H22.9419C23.0973 0.000106764 23.2463 0.0626144 23.3562 0.173879C23.466 0.285143 23.5277 0.436052 23.5277 0.593403V4.49033Z" fill="white"/>
<path fill-rule="evenodd" clip-rule="evenodd" d="M4.464 29.4192L2.91561 30.3262L2.46143 29.5421L3.93238 28.6848C4.0874 28.9454 4.26534 29.1911 4.464 29.4192Z" fill="white"/>
<path fill-rule="evenodd" clip-rule="evenodd" d="M24.8383 4.99187L10.2061 22.3072L11.4964 23.4258L17.5222 19.6883C19.7028 16.2383 25.6357 8.36607 26.0771 4.79062C26.2319 3.50471 26.2345 3.34266 24.8383 4.99187Z" fill="white"/>
<path fill-rule="evenodd" clip-rule="evenodd" d="M9.42174 21.1704C8.29545 20.8637 7.09901 20.9622 6.03635 21.4489C4.97372 21.9357 4.11062 22.7806 3.59423 23.8397C3.07782 24.8988 2.94007 26.1065 3.20445 27.257C3.46884 28.4073 4.11898 29.4292 5.04407 30.1485C5.96915 30.868 7.11191 31.2399 8.27759 31.2015C9.44324 31.1631 10.5596 30.7162 11.4365 29.9373C12.3133 29.1584 12.8963 28.0957 13.0861 26.9303C13.2759 25.765 13.0607 24.5689 12.4772 23.5462C11.81 22.3754 10.7109 21.5208 9.42174 21.1704ZM6.45142 23.1672C7.11839 22.7757 7.89878 22.6306 8.65958 22.7566C9.42035 22.8826 10.1144 23.2719 10.6236 23.8582C11.1327 24.4444 11.4253 25.1913 11.4516 25.9716C11.4779 26.7518 11.2361 27.5173 10.7677 28.1373C10.2991 28.7573 9.63284 29.1935 8.88229 29.3717C8.13176 29.55 7.34342 29.459 6.65165 29.1145C5.95989 28.7701 5.40753 28.193 5.08866 27.4823C4.7698 26.7714 4.7042 25.9706 4.90303 25.2163C5.01552 24.7885 5.21016 24.3873 5.47586 24.0357C5.74154 23.6841 6.07305 23.389 6.45142 23.1672Z" fill="white"/>
<path fill-rule="evenodd" clip-rule="evenodd" d="M7.08379 4.99187L21.7161 22.3072L20.4257 23.4258L14.3999 19.6883C12.2193 16.2383 6.28637 8.36607 5.84508 4.79062C5.67734 3.50471 5.67734 3.34266 7.08379 4.99187Z" fill="white"/>
<path fill-rule="evenodd" clip-rule="evenodd" d="M22.5004 21.1705C23.6256 20.8654 24.8204 20.9649 25.8814 21.452C26.9423 21.9391 27.8034 22.7837 28.3185 23.8418C28.8334 24.8999 28.9701 26.1062 28.7056 27.2551C28.4408 28.4038 27.791 29.4241 26.8669 30.1421C25.9425 30.8603 24.8012 31.2315 23.637 31.1928C22.4728 31.1541 21.358 30.7077 20.4823 29.9296C19.6066 29.1518 19.0244 28.0904 18.8348 26.9265C18.6451 25.7625 18.8598 24.5679 19.4423 23.5463C19.773 22.9663 20.2133 22.458 20.738 22.0503C21.2627 21.6427 21.8616 21.3437 22.5004 21.1705ZM25.4707 23.1674C24.8033 22.7753 24.0222 22.6299 23.2607 22.7558C22.4992 22.8817 21.8044 23.2712 21.2948 23.8579C20.7851 24.4446 20.4921 25.1921 20.4657 25.9731C20.4394 26.754 20.6813 27.5201 21.1502 28.1408C21.6191 28.7613 22.2861 29.1981 23.0373 29.3763C23.7885 29.5546 24.5775 29.4633 25.2699 29.1183C25.9621 28.7736 26.5149 28.196 26.8339 27.4846C27.1528 26.7729 27.2184 25.9714 27.0192 25.2164C26.7916 24.3525 26.2347 23.6154 25.4707 23.1674Z" fill="white"/>
<path fill-rule="evenodd" clip-rule="evenodd" d="M8.11868 23.9749C7.63566 23.9749 7.16758 24.1444 6.79416 24.4547C6.42077 24.765 6.16513 25.1968 6.07086 25.6766C5.97656 26.1563 6.04947 26.6544 6.2771 27.0859C6.50474 27.5174 6.87305 27.8554 7.31927 28.0428C7.76552 28.2299 8.26203 28.2547 8.72428 28.1128C9.1865 27.9709 9.58583 27.6709 9.85421 27.2642C10.1226 26.8575 10.2434 26.369 10.1962 25.8823C10.1488 25.3954 9.93633 24.9403 9.59481 24.5943C9.40123 24.3976 9.17114 24.2417 8.91783 24.1353C8.66449 24.029 8.3929 23.9745 8.11868 23.9749ZM6.36642 24.3068C6.77153 23.8983 7.30394 23.6445 7.87303 23.5888C8.44211 23.5331 9.01267 23.6788 9.48756 24.0012C9.96245 24.3236 10.3123 24.8028 10.4776 25.3571C10.6429 25.9114 10.6134 26.5067 10.3941 27.0415C10.1748 27.5762 9.77932 28.0174 9.27491 28.29C8.77052 28.5626 8.18843 28.6497 7.62774 28.5365C7.06701 28.4233 6.56239 28.117 6.19971 27.6693C5.83705 27.2216 5.63881 26.6604 5.63868 26.0815C5.6379 25.7516 5.70185 25.4249 5.82678 25.1202C5.95171 24.8156 6.13514 24.5391 6.36642 24.3068Z" fill="white"/>
<path fill-rule="evenodd" clip-rule="evenodd" d="M23.8036 23.975C23.321 23.9774 22.8541 24.149 22.4824 24.4606C22.1107 24.7723 21.857 25.2047 21.7645 25.6844C21.6721 26.164 21.7466 26.6613 21.9753 27.0918C22.2041 27.522 22.573 27.8589 23.0192 28.0447C23.4655 28.2308 23.9616 28.2543 24.4231 28.1116C24.8847 27.9689 25.2832 27.6689 25.5508 27.2622C25.8185 26.8555 25.9388 26.3676 25.8913 25.8811C25.8435 25.3947 25.6312 24.9401 25.29 24.5945C25.097 24.3971 24.867 24.2406 24.6135 24.1343C24.3601 24.0279 24.0882 23.9738 23.8139 23.975H23.8036ZM22.0513 24.307C22.4568 23.8957 22.9906 23.6396 23.5616 23.5823C24.1327 23.525 24.7056 23.67 25.1829 23.9927C25.6602 24.3153 26.0123 24.7956 26.179 25.3517C26.346 25.9078 26.3171 26.5053 26.0977 27.0421C25.8781 27.5792 25.4817 28.0225 24.9757 28.2967C24.4697 28.5706 23.8855 28.6587 23.3226 28.5452C22.7598 28.4321 22.2532 28.1245 21.8891 27.6752C21.5251 27.2259 21.3261 26.6629 21.3262 26.0816C21.3256 25.752 21.3894 25.4256 21.5139 25.121C21.6383 24.8164 21.821 24.5398 22.0513 24.307Z" fill="white"/>
</g>
<path d="M4.69503 43.7441C4.30966 43.7441 3.95317 43.6733 3.62561 43.5319C3.29805 43.3905 3.01142 43.1929 2.76574 42.9391C2.52006 42.6854 2.32737 42.3879 2.18767 42.0463C2.05279 41.7047 1.98535 41.3315 1.98535 40.9266C1.98535 40.5218 2.05038 40.1486 2.18045 39.807C2.31533 39.4606 2.5032 39.163 2.74406 38.9141C2.98974 38.6603 3.27637 38.4654 3.60393 38.3287C3.93149 38.1873 4.28798 38.1165 4.67335 38.1165C5.05872 38.1165 5.40316 38.1823 5.70664 38.314C6.01495 38.4458 6.27508 38.6214 6.48703 38.841C6.69898 39.0555 6.85072 39.2923 6.94225 39.5508L6.06793 39.9753C5.96677 39.6922 5.79575 39.463 5.5549 39.2874C5.31405 39.1117 5.02019 39.0239 4.67335 39.0239C4.33614 39.0239 4.03748 39.1044 3.77735 39.2654C3.52205 39.4264 3.32213 39.6483 3.17761 39.9314C3.03792 40.2144 2.96806 40.5461 2.96806 40.9266C2.96806 41.3072 3.04032 41.6415 3.18484 41.9292C3.33418 42.2123 3.5389 42.4342 3.79903 42.5952C4.05916 42.7562 4.35782 42.8367 4.69503 42.8367C4.96961 42.8367 5.22251 42.7831 5.45374 42.6757C5.68496 42.5636 5.87044 42.4073 6.01013 42.2073C6.14982 42.0024 6.21967 41.7609 6.21967 41.4828V41.0657L6.66767 41.4609H4.67335V40.6193H7.20238V41.1681C7.20238 41.5876 7.13253 41.9585 6.99284 42.2805C6.85314 42.6025 6.66285 42.8733 6.422 43.0928C6.18595 43.3074 5.91859 43.471 5.61993 43.5831C5.32127 43.6906 5.01296 43.7441 4.69503 43.7441ZM9.82259 43.7441C9.4372 43.7441 9.08556 43.654 8.76762 43.4734C8.45449 43.2928 8.20401 43.0466 8.01614 42.7342C7.83307 42.4219 7.74156 42.0659 7.74156 41.6658C7.74156 41.2656 7.83307 40.9096 8.01614 40.5973C8.20401 40.285 8.45449 40.0388 8.76762 39.8582C9.08073 39.6776 9.4324 39.5874 9.82259 39.5874C10.208 39.5874 10.5572 39.6776 10.8703 39.8582C11.1834 40.0388 11.4315 40.285 11.6146 40.5973C11.8025 40.9047 11.8964 41.2609 11.8964 41.6658C11.8964 42.0659 11.8025 42.4219 11.6146 42.7342C11.4267 43.0466 11.1762 43.2928 10.8631 43.4734C10.55 43.654 10.2031 43.7441 9.82259 43.7441ZM9.82259 42.866C10.0345 42.866 10.22 42.8147 10.379 42.7123C10.5427 42.6098 10.6704 42.4684 10.7619 42.2878C10.8583 42.1025 10.9065 41.895 10.9065 41.6658C10.9065 41.4316 10.8583 41.2267 10.7619 41.051C10.6704 40.8704 10.5427 40.729 10.379 40.6266C10.22 40.5192 10.0345 40.4656 9.82259 40.4656C9.60582 40.4656 9.41552 40.5192 9.25175 40.6266C9.08796 40.729 8.95789 40.8704 8.86156 41.051C8.77002 41.2267 8.72427 41.4316 8.72427 41.6658C8.72427 41.895 8.77002 42.1025 8.86156 42.2878C8.95789 42.4684 9.08796 42.6098 9.25175 42.7123C9.41552 42.8147 9.60582 42.866 9.82259 42.866ZM14.7603 43.7441C14.4761 43.7441 14.2135 43.6879 13.9727 43.5758C13.7366 43.4587 13.5488 43.2928 13.4091 43.0782L13.503 42.8879V43.6563H12.6142V38.1165H13.5608V40.4656L13.4163 40.268C13.5512 40.0534 13.7342 39.8875 13.9655 39.7704C14.1967 39.6483 14.464 39.5874 14.7675 39.5874C15.1384 39.5874 15.4732 39.6802 15.7719 39.8655C16.0706 40.0508 16.3066 40.2996 16.48 40.612C16.6583 40.9243 16.7474 41.2756 16.7474 41.6658C16.7474 42.0513 16.6607 42.4026 16.4873 42.7196C16.3138 43.0366 16.0778 43.2881 15.7791 43.4734C15.4805 43.654 15.1409 43.7441 14.7603 43.7441ZM14.6519 42.866C14.8687 42.866 15.0614 42.8147 15.23 42.7123C15.3986 42.6098 15.5286 42.4684 15.6202 42.2878C15.7165 42.1072 15.7647 41.9 15.7647 41.6658C15.7647 41.4316 15.7165 41.2267 15.6202 41.051C15.5286 40.8704 15.3986 40.729 15.23 40.6266C15.0614 40.5192 14.8687 40.4656 14.6519 40.4656C14.4448 40.4656 14.2569 40.5168 14.0883 40.6193C13.9245 40.7217 13.7944 40.8657 13.6981 41.051C13.6066 41.2316 13.5608 41.4366 13.5608 41.6658C13.5608 41.9 13.6066 42.1072 13.6981 42.2878C13.7944 42.4684 13.9245 42.6098 14.0883 42.7123C14.2569 42.8147 14.4448 42.866 14.6519 42.866ZM18.6613 43.7441C18.3867 43.7441 18.1483 43.6979 17.946 43.6051C17.7436 43.5123 17.5871 43.3806 17.4763 43.2099C17.3655 43.0343 17.3101 42.8317 17.3101 42.6025C17.3101 42.383 17.3583 42.1877 17.4546 42.017C17.551 41.8414 17.7003 41.695 17.9026 41.578C18.1049 41.4609 18.3602 41.378 18.6686 41.3291L19.9547 41.1169V41.8487L18.8492 42.039C18.6613 42.0732 18.5216 42.1341 18.4301 42.222C18.3386 42.3098 18.2928 42.4245 18.2928 42.5659C18.2928 42.7026 18.3434 42.8124 18.4446 42.8952C18.5505 42.9734 18.6806 43.0123 18.8347 43.0123C19.0322 43.0123 19.2057 42.9708 19.355 42.8879C19.5091 42.8001 19.6272 42.6806 19.7091 42.5293C19.7958 42.378 19.8391 42.2123 19.8391 42.0317V41.0071C19.8391 40.8365 19.7717 40.6948 19.6368 40.5827C19.5067 40.4656 19.3333 40.407 19.1166 40.407C18.9142 40.407 18.7336 40.4632 18.5746 40.5754C18.4205 40.6828 18.3073 40.8265 18.235 41.0071L17.4618 40.6266C17.5389 40.4167 17.6593 40.2364 17.8231 40.085C17.9917 39.929 18.1892 39.807 18.4156 39.7191C18.642 39.6313 18.8877 39.5874 19.1527 39.5874C19.4754 39.5874 19.7596 39.6483 20.0053 39.7704C20.251 39.8875 20.4413 40.0534 20.5762 40.268C20.7159 40.4779 20.7857 40.7241 20.7857 41.0071V43.6563H19.8897V42.9757L20.092 42.9611C19.9909 43.1318 19.8704 43.2758 19.7307 43.3929C19.5911 43.505 19.4321 43.5928 19.2538 43.6563C19.0756 43.7149 18.8781 43.7441 18.6613 43.7441ZM21.6606 43.6563V39.6752H22.5494V40.5607L22.4771 40.429C22.5687 40.1313 22.7107 39.924 22.9034 39.807C23.1009 39.6899 23.337 39.6313 23.6116 39.6313H23.8428V40.4802H23.5032C23.2334 40.4802 23.0167 40.5657 22.8529 40.7364C22.6891 40.9023 22.6072 41.1365 22.6072 41.4389V43.6563H21.6606ZM24.6667 40.2973V39.8216C24.8257 39.7826 24.9533 39.7118 25.0497 39.6094C25.1508 39.5019 25.2135 39.3752 25.2375 39.2288H24.8112V38.2043H25.765V38.8336C25.765 39.2288 25.6711 39.5532 25.4832 39.807C25.3002 40.0558 25.028 40.2191 24.6667 40.2973ZM28.4416 43.7441C28.0225 43.7441 27.6563 43.644 27.3433 43.4441C27.0349 43.2392 26.823 42.9634 26.7074 42.6171L27.4155 42.2732C27.5167 42.4977 27.6563 42.6733 27.8346 42.8001C28.0176 42.9269 28.2199 42.9904 28.4416 42.9904C28.615 42.9904 28.7523 42.9514 28.8535 42.8733C28.9546 42.7951 29.0052 42.6927 29.0052 42.5659C29.0052 42.4878 28.9835 42.4245 28.9402 42.3756C28.9017 42.3221 28.8462 42.2781 28.774 42.2439C28.7066 42.205 28.6318 42.1731 28.55 42.1488L27.9069 41.9658C27.5745 41.8683 27.3216 41.7193 27.1482 41.5194C26.9796 41.3195 26.8953 41.0827 26.8953 40.8095C26.8953 40.5657 26.9554 40.3535 27.0759 40.1729C27.2011 39.9876 27.3722 39.8435 27.5889 39.7411C27.8106 39.6386 28.0635 39.5874 28.3476 39.5874C28.7185 39.5874 29.0462 39.6776 29.3304 39.8582C29.6145 40.0388 29.8168 40.2923 29.9373 40.6193L29.2147 40.9632C29.1474 40.7826 29.0341 40.6389 28.8751 40.5315C28.7162 40.424 28.5378 40.3705 28.3404 40.3705C28.1815 40.3705 28.0563 40.407 27.9647 40.4802C27.8731 40.5534 27.8274 40.6485 27.8274 40.7656C27.8274 40.8388 27.8467 40.9023 27.8852 40.9559C27.9236 41.0095 27.9768 41.0534 28.0442 41.0876C28.1164 41.1219 28.1982 41.1535 28.2898 41.1828L28.9185 41.373C29.2413 41.4705 29.4893 41.6169 29.6627 41.8121C29.8411 42.0074 29.9301 42.2463 29.9301 42.5293C29.9301 42.7685 29.8674 42.9807 29.7422 43.166C29.6171 43.3466 29.4436 43.488 29.222 43.5905C29.0003 43.6929 28.7402 43.7441 28.4416 43.7441Z" fill="white"/>
</svg>
